<svg width="120" height="120" xmlns="http://www.w3.org/2000/svg">
 <!-- Created with SVG Editor - http://github.com/mzalive/SVG Editor/ -->

 <g>
  <title>background</title>
  <rect fill="none" id="canvas_background" height="122" width="122" y="-1" x="-1"/>
 </g>
 <g>
  <title>Layer 1</title>
  <ellipse ry="49.5" rx="50" id="svg_2" cy="60" cx="60" stroke-width="1.5" fill="#007fff"/>
  <path id="svg_1" d="m60.001029,33.499999c-14.358562,0.006277 -25.994868,11.865422 -26.001027,26.501046c0,14.635625 11.640413,26.49477 26.001027,26.498954c14.358562,-0.004185 25.994868,-11.86333 25.998974,-26.496862c-0.002053,-14.637717 -11.63836,-26.503139 -25.998974,-26.503139zm19.837973,26.501046c-0.006159,4.065335 -1.196889,7.841933 -3.22113,11.013857l-27.423744,-27.944732c3.110269,-2.06719 6.815903,-3.282816 10.808954,-3.291185c10.954716,0.023015 19.817443,9.057558 19.83592,20.22206zm-39.680052,0c0.008212,-4.065335 1.198942,-7.846117 3.229342,-11.018041l27.417585,27.946824c-3.112322,2.063006 -6.815903,3.276539 -10.806901,3.282816c-10.952663,-0.010461 -19.817443,-9.047097 -19.840026,-20.211599z" fill-opacity="null" stroke-opacity="null" stroke-width="1.5" stroke="null" fill="#ffffff"/>
 </g>
</svg>