<svg width="120" height="120" xmlns="http://www.w3.org/2000/svg">
 <!-- Created with SVG Editor - http://github.com/mzalive/SVG Editor/ -->
 <g>
  <title>background</title>
  <rect fill="none" id="canvas_background" height="122" width="122" y="-1" x="-1"/>
 </g>
 <g>
  <title>Layer 1</title>
  <ellipse ry="49.5" rx="50" id="svg_2" cy="60" cx="61" stroke-width="1.5" fill="#7f00ff"/>
  <path stroke="null" id="svg_5" d="m85.998068,50.158359c-0.007721,-5.075405 -3.459203,-9.187678 -7.719504,-9.194574l0,-0.002299l-23.660406,0c-0.974831,-3.7284 -3.881951,-6.454591 -7.345015,-6.461487l-5.549781,0c-4.262232,0.004597 -7.715643,4.119169 -7.723365,9.194574l0,32.613153c0.007721,5.070807 3.461133,9.18308 7.723365,9.192275l36.557132,0c4.256441,-0.009195 7.711783,-4.121468 7.719504,-9.192275l0,-26.149367l-0.00193,0zm-44.274706,-11.063371l5.549781,0c2.019155,-0.009195 3.700497,1.917069 3.827901,4.312255l0.111961,2.153829l27.067489,0c2.109882,0.004597 3.854926,2.082571 3.858787,4.597287l0,1.137828c-1.140842,-0.793032 -2.447695,-1.280344 -3.860717,-1.282643l-36.557132,0c-1.413023,0.002299 -2.721806,0.49191 -3.860717,1.284942l0,-7.606211c0.005791,-2.514716 1.750835,-4.59269 3.862648,-4.597287zm36.555201,41.807726l-36.555201,0c-2.109882,-0.004597 -3.854926,-2.087168 -3.862648,-4.597287l0,-17.09731l0.00193,0c0.003861,-2.517015 1.748905,-4.594988 3.860717,-4.599585l36.557132,0c2.109882,0.004597 3.843344,2.071078 3.860717,4.576599l0,17.117997c-0.007721,2.517015 -1.752766,4.594988 -3.862648,4.599585z" fill-opacity="null" stroke-opacity="null" stroke-width="1.5" fill="#ffffff"/>
 </g>
</svg>