<svg width="120" height="120" xmlns="http://www.w3.org/2000/svg">
 <!-- Created with SVG Editor - http://github.com/mzalive/SVG Editor/ -->

 <g>
  <title>background</title>
  <rect x="-1" y="-1" width="122" height="122" id="canvas_background" fill="none"/>
 </g>
 <g>
  <title>Layer 1</title>
  <ellipse fill="#ffcc00" stroke-width="1.5" cx="60" cy="60" id="svg_2" rx="50" ry="49.5"/>
  <path id="svg_1" d="m90.388834,76.632031l-8.349474,-14.209456c-2.517336,-4.282693 -6.634783,-11.293802 -9.152134,-15.577323l-8.348694,-14.208594c-2.519834,-4.285205 -6.637279,-4.285205 -9.153779,0l-8.347003,14.208594c-2.517336,4.283521 -6.637292,11.296262 -9.153797,15.577323l-8.347854,14.209456c-2.517331,4.286825 -0.45692,7.790715 4.576909,7.790715l51.693926,0c5.038856,0 7.096715,-3.503893 4.581898,-7.790715l0.000003,0zm-28.043055,2.199733l-4.952048,0l0,-4.67209l4.952048,0l0,4.67209zm-0.238578,-8.114667l-4.470665,0l-0.444292,-19.990152l5.319605,0l-0.404645,19.990152l-0.000003,0z" fill-opacity="null" stroke-opacity="null" stroke-width="1.5" stroke="null" fill="#ffffff"/>
 </g>
</svg>